<svg width="250" height="95" viewBox="0 0 239 93" fill="none" xmlns="http://www.w3.org/2000/svg">
<path d="M191.49 27.4652C187.257 27.5598 183.066 27.9719 179.039 28.6895C179.575 27.0398 179.791 25.3663 179.682 23.6957C178.821 10.4021 157.937 0.0838559 133.036 0.649523C112.206 1.12274 95.1668 9.06341 90.6563 19.4289C83.8515 14.0698 72.1645 10.6652 59.1051 10.9619C38.9516 11.4197 23.1783 20.5132 23.8753 31.273C24.0834 34.6003 25.8922 37.8362 29.1278 40.6702C11.9642 44.4067 0.111541 53.569 0.787192 63.9995C1.6483 77.2931 22.5322 87.6113 47.4324 87.0457C58.0496 86.8045 67.6806 84.6226 75.1715 81.1693C79.9397 85.9439 89.5289 89.0912 100.373 88.8449C105.885 88.7239 111.213 87.7151 115.653 85.9514C122.867 90.4726 133.766 93.2364 145.792 92.9632C164.739 92.5328 179.937 84.7217 182.004 74.9459C186.122 75.4817 190.365 75.7039 194.609 75.606C219.509 75.0403 238.997 63.805 238.136 50.5114C237.275 37.2178 216.391 26.8996 191.49 27.4652Z" fill="#D7E4F8"/>
</svg>
