<svg width="271" height="120" viewBox="0 0 271 120" fill="none" xmlns="http://www.w3.org/2000/svg">
<path d="M218.854 36.3997C214.048 36.404 209.266 36.8194 204.648 37.6339C205.375 35.519 205.74 33.3643 205.736 31.2045C205.713 14.0179 182.774 0.115537 154.501 0.152989C130.848 0.18432 110.959 9.96196 105.101 23.2187C97.7701 16.1106 84.7631 11.3899 69.9346 11.4096C47.0509 11.4399 28.5143 22.7411 28.5327 36.6518C28.5301 40.9533 30.3487 45.1813 33.8142 48.9301C14.0853 53.2766 -0.010892 64.7757 0.00697077 78.2608C0.0297366 95.4473 22.9686 109.35 51.242 109.312C63.2974 109.296 74.3739 106.747 83.1151 102.497C88.179 108.794 98.8258 113.124 111.139 113.108C117.397 113.105 123.51 111.951 128.672 109.798C136.527 115.836 148.686 119.707 162.341 119.689C183.855 119.66 201.648 109.999 204.693 97.4354C209.323 98.2417 214.118 98.6467 218.937 98.6383C247.21 98.6008 270.112 84.6378 270.089 67.4512C270.067 50.2646 247.128 36.3623 218.854 36.3997Z" fill="#D7E4F8"/>
</svg>
