<svg width="48" height="48" viewBox="0 0 48 48" fill="none" xmlns="http://www.w3.org/2000/svg">
<mask id="path-1-inside-1_5_6" fill="white">
<path d="M17.25 4C16.388 4 15.5614 4.34241 14.9519 4.9519C14.3424 5.5614 14 6.38805 14 7.25V13.25C14 13.4489 13.921 13.6397 13.7803 13.7803C13.6397 13.921 13.4489 14 13.25 14H7.25C6.38805 14 5.5614 14.3424 4.9519 14.9519C4.34241 15.5614 4 16.388 4 17.25V23.25C4 23.6768 4.08406 24.0994 4.24739 24.4937C4.41072 24.888 4.65011 25.2463 4.9519 25.5481C5.25369 25.8499 5.61197 26.0893 6.00628 26.2526C6.40059 26.4159 6.8232 26.5 7.25 26.5H23.25C23.6768 26.5 24.0994 26.4159 24.4937 26.2526C24.888 26.0893 25.2463 25.8499 25.5481 25.5481C25.8499 25.2463 26.0893 24.888 26.2526 24.4937C26.4159 24.0994 26.5 23.6768 26.5 23.25V17.25C26.5 17.0511 26.579 16.8603 26.7197 16.7197C26.8603 16.579 27.0511 16.5 27.25 16.5H33.25C34.112 16.5 34.9386 16.1576 35.5481 15.5481C36.1576 14.9386 36.5 14.112 36.5 13.25V7.25C36.5 6.38805 36.1576 5.5614 35.5481 4.9519C34.9386 4.34241 34.112 4 33.25 4H17.25ZM33.25 14H26.5V6.5H33.25C33.4489 6.5 33.6397 6.57902 33.7803 6.71967C33.921 6.86032 34 7.05109 34 7.25V13.25C34 13.4489 33.921 13.6397 33.7803 13.7803C33.6397 13.921 33.4489 14 33.25 14V14ZM24 14H16.5V7.25C16.5 7.05109 16.579 6.86032 16.7197 6.71967C16.8603 6.57902 17.0511 6.5 17.25 6.5H24V14ZM14 16.5V24H7.25C7.05109 24 6.86032 23.921 6.71967 23.7803C6.57902 23.6397 6.5 23.4489 6.5 23.25V17.25C6.5 17.0511 6.57902 16.8603 6.71967 16.7197C6.86032 16.579 7.05109 16.5 7.25 16.5H14ZM16.5 16.5H24V23.25C24 23.4489 23.921 23.6397 23.7803 23.7803C23.6397 23.921 23.4489 24 23.25 24H16.5V16.5ZM34.75 21.5H40.75C41.1768 21.5 41.5994 21.5841 41.9937 21.7474C42.388 21.9107 42.7463 22.1501 43.0481 22.4519C43.3499 22.7537 43.5893 23.112 43.7526 23.5063C43.9159 23.9006 44 24.3232 44 24.75V40.75C44 41.1768 43.9159 41.5994 43.7526 41.9937C43.5893 42.388 43.3499 42.7463 43.0481 43.0481C42.7463 43.3499 42.388 43.5893 41.9937 43.7526C41.5994 43.9159 41.1768 44 40.75 44H13.25C12.8232 44 12.4006 43.9159 12.0063 43.7526C11.612 43.5893 11.2537 43.3499 10.9519 43.0481C10.6501 42.7463 10.4107 42.388 10.2474 41.9937C10.0841 41.5994 10 41.1768 10 40.75V34.75C10 33.888 10.3424 33.0614 10.9519 32.4519C11.5614 31.8424 12.388 31.5 13.25 31.5H30.75C30.9489 31.5 31.1397 31.421 31.2803 31.2803C31.421 31.1397 31.5 30.9489 31.5 30.75V24.75C31.5 23.888 31.8424 23.0614 32.4519 22.4519C33.0614 21.8424 33.888 21.5 34.75 21.5V21.5ZM31.5 41.5V34H23.5V41.5H31.5ZM41.5 34H34V41.5H40.75C40.9489 41.5 41.1397 41.421 41.2803 41.2803C41.421 41.1397 41.5 40.9489 41.5 40.75V34ZM34 31.5H41.5V24.75C41.5 24.5511 41.421 24.3603 41.2803 24.2197C41.1397 24.079 40.9489 24 40.75 24H34.75C34.5511 24 34.3603 24.079 34.2197 24.2197C34.079 24.3603 34 24.5511 34 24.75V31.5ZM21 34H13.25C13.0511 34 12.8603 34.079 12.7197 34.2197C12.579 34.3603 12.5 34.5511 12.5 34.75V40.75C12.5 41.164 12.836 41.5 13.25 41.5H21V34Z"/>
</mask>
<path d="M17.25 4C16.388 4 15.5614 4.34241 14.9519 4.9519C14.3424 5.5614 14 6.38805 14 7.25V13.25C14 13.4489 13.921 13.6397 13.7803 13.7803C13.6397 13.921 13.4489 14 13.25 14H7.25C6.38805 14 5.5614 14.3424 4.9519 14.9519C4.34241 15.5614 4 16.388 4 17.25V23.25C4 23.6768 4.08406 24.0994 4.24739 24.4937C4.41072 24.888 4.65011 25.2463 4.9519 25.5481C5.25369 25.8499 5.61197 26.0893 6.00628 26.2526C6.40059 26.4159 6.8232 26.5 7.25 26.5H23.25C23.6768 26.5 24.0994 26.4159 24.4937 26.2526C24.888 26.0893 25.2463 25.8499 25.5481 25.5481C25.8499 25.2463 26.0893 24.888 26.2526 24.4937C26.4159 24.0994 26.5 23.6768 26.5 23.25V17.25C26.5 17.0511 26.579 16.8603 26.7197 16.7197C26.8603 16.579 27.0511 16.5 27.25 16.5H33.25C34.112 16.5 34.9386 16.1576 35.5481 15.5481C36.1576 14.9386 36.5 14.112 36.5 13.25V7.25C36.5 6.38805 36.1576 5.5614 35.5481 4.9519C34.9386 4.34241 34.112 4 33.25 4H17.25ZM33.25 14H26.5V6.5H33.25C33.4489 6.5 33.6397 6.57902 33.7803 6.71967C33.921 6.86032 34 7.05109 34 7.25V13.25C34 13.4489 33.921 13.6397 33.7803 13.7803C33.6397 13.921 33.4489 14 33.25 14V14ZM24 14H16.5V7.25C16.5 7.05109 16.579 6.86032 16.7197 6.71967C16.8603 6.57902 17.0511 6.5 17.25 6.5H24V14ZM14 16.5V24H7.25C7.05109 24 6.86032 23.921 6.71967 23.7803C6.57902 23.6397 6.5 23.4489 6.5 23.25V17.25C6.5 17.0511 6.57902 16.8603 6.71967 16.7197C6.86032 16.579 7.05109 16.5 7.25 16.5H14ZM16.5 16.5H24V23.25C24 23.4489 23.921 23.6397 23.7803 23.7803C23.6397 23.921 23.4489 24 23.25 24H16.5V16.5ZM34.75 21.5H40.75C41.1768 21.5 41.5994 21.5841 41.9937 21.7474C42.388 21.9107 42.7463 22.1501 43.0481 22.4519C43.3499 22.7537 43.5893 23.112 43.7526 23.5063C43.9159 23.9006 44 24.3232 44 24.75V40.75C44 41.1768 43.9159 41.5994 43.7526 41.9937C43.5893 42.388 43.3499 42.7463 43.0481 43.0481C42.7463 43.3499 42.388 43.5893 41.9937 43.7526C41.5994 43.9159 41.1768 44 40.75 44H13.25C12.8232 44 12.4006 43.9159 12.0063 43.7526C11.612 43.5893 11.2537 43.3499 10.9519 43.0481C10.6501 42.7463 10.4107 42.388 10.2474 41.9937C10.0841 41.5994 10 41.1768 10 40.75V34.75C10 33.888 10.3424 33.0614 10.9519 32.4519C11.5614 31.8424 12.388 31.5 13.25 31.5H30.75C30.9489 31.5 31.1397 31.421 31.2803 31.2803C31.421 31.1397 31.5 30.9489 31.5 30.75V24.75C31.5 23.888 31.8424 23.0614 32.4519 22.4519C33.0614 21.8424 33.888 21.5 34.75 21.5V21.5ZM31.5 41.5V34H23.5V41.5H31.5ZM41.5 34H34V41.5H40.75C40.9489 41.5 41.1397 41.421 41.2803 41.2803C41.421 41.1397 41.5 40.9489 41.5 40.75V34ZM34 31.5H41.5V24.75C41.5 24.5511 41.421 24.3603 41.2803 24.2197C41.1397 24.079 40.9489 24 40.75 24H34.75C34.5511 24 34.3603 24.079 34.2197 24.2197C34.079 24.3603 34 24.5511 34 24.75V31.5ZM21 34H13.25C13.0511 34 12.8603 34.079 12.7197 34.2197C12.579 34.3603 12.5 34.5511 12.5 34.75V40.75C12.5 41.164 12.836 41.5 13.25 41.5H21V34Z" fill="#FAFBFA" stroke="#FAFBFA" stroke-width="6" mask="url(#path-1-inside-1_5_6)"/>
</svg>
