<svg width="200" height="99" viewBox="0 0 200 99" fill="none" xmlns="http://www.w3.org/2000/svg">
<path d="M161.524 29.9436C157.956 29.9465 154.407 30.2879 150.979 30.9575C151.519 29.2174 151.789 27.4447 151.786 25.6676C151.767 11.5268 134.739 0.0857601 113.752 0.113559C96.196 0.136815 81.4339 8.17956 77.0872 19.0864C71.6448 13.2371 61.9896 9.35167 50.9829 9.36625C33.9971 9.38875 20.2391 18.6852 20.2543 30.1307C20.2527 33.6698 21.6031 37.1488 24.1758 40.2336C9.53216 43.8077 -0.929792 53.2674 -0.915095 64.3627C-0.896364 78.5035 16.1319 89.9445 37.1184 89.9167C46.0668 89.9049 54.2882 87.8088 60.7761 84.313C64.5355 89.4946 72.4388 93.0584 81.5783 93.0463C86.2239 93.0447 90.7613 92.0957 94.5924 90.3245C100.423 95.2931 109.449 98.4797 119.585 98.4663C135.554 98.4451 148.76 90.4977 151.019 80.161C154.456 80.825 158.015 81.1587 161.592 81.1523C182.578 81.1245 199.576 69.6384 199.558 55.4976C199.539 41.3568 182.511 29.9158 161.524 29.9436Z" fill="#D7E4F8"/>
</svg>
