<svg width="70" height="70" viewBox="0 0 70 70" fill="none" xmlns="http://www.w3.org/2000/svg">
<g clip-path="url(#clip0_2_207)">
<rect y="70" width="70" height="70" rx="10" transform="rotate(-90 0 70)" fill="
#4472c4"/>
<path fill-rule="evenodd" clip-rule="evenodd" d="M8.75 4.375C7.58968 4.375 6.47688 4.83594 5.65641 5.65641C4.83594 6.47688 4.375 7.58968 4.375 8.75L4.375 61.25C4.375 62.4103 4.83594 63.5231 5.65641 64.3436C6.47688 65.1641 7.58968 65.625 8.75 65.625L61.25 65.625C62.4103 65.625 63.5231 65.1641 64.3436 64.3436C65.1641 63.5231 65.625 62.4103 65.625 61.25L65.625 8.75C65.625 7.58968 65.1641 6.47688 64.3436 5.65641C63.5231 4.83594 62.4103 4.375 61.25 4.375L8.75 4.375ZM8.75 70C6.42936 70 4.20376 69.0781 2.56282 67.4372C0.921872 65.7962 0 63.5706 0 61.25L0 8.75C0 6.42936 0.921872 4.20376 2.56282 2.56282C4.20376 0.921875 6.42936 0 8.75 0L61.25 0C63.5706 0 65.7962 0.921875 67.4372 2.56282C69.0781 4.20376 70 6.42936 70 8.75L70 61.25C70 63.5706 69.0781 65.7962 67.4372 67.4372C65.7962 69.0781 63.5706 70 61.25 70L8.75 70ZM19.6875 32.8125C19.1073 32.8125 18.5509 33.043 18.1407 33.4532C17.7305 33.8634 17.5 34.4198 17.5 35C17.5 35.5802 17.7305 36.1366 18.1407 36.5468C18.5509 36.957 19.1073 37.1875 19.6875 37.1875L45.0319 37.1875L35.6387 46.5763C35.228 46.987 34.9972 47.5441 34.9972 48.125C34.9972 48.7059 35.228 49.263 35.6387 49.6737C36.0495 50.0845 36.6066 50.3153 37.1875 50.3153C37.7684 50.3153 38.3255 50.0845 38.7363 49.6737L51.8613 36.5488C52.065 36.3456 52.2266 36.1042 52.3369 35.8384C52.4471 35.5726 52.5039 35.2877 52.5039 35C52.5039 34.7123 52.4471 34.4274 52.3369 34.1616C52.2266 33.8958 52.065 33.6544 51.8613 33.4512L38.7363 20.3262C38.3255 19.9155 37.7684 19.6847 37.1875 19.6847C36.6066 19.6847 36.0495 19.9155 35.6387 20.3262C35.228 20.737 34.9972 21.2941 34.9972 21.875C34.9972 22.4559 35.228 23.013 35.6387 23.4238L45.0319 32.8125L19.6875 32.8125Z" fill="black"/>
</g>
<defs>
<clipPath id="clip0_2_207">
<rect y="70" width="70" height="70" rx="10" transform="rotate(-90 0 70)" fill="white"/>
</clipPath>
</defs>
</svg>
