<svg width="70" height="70" viewBox="0 0 70 70" fill="none" xmlns="http://www.w3.org/2000/svg">
<rect width="70" height="70" rx="10" fill="
#4472c4"/>
<path fill-rule="evenodd" clip-rule="evenodd" d="M65.625 8.75C65.625 7.58968 65.1641 6.47688 64.3436 5.65641C63.5231 4.83594 62.4103 4.375 61.25 4.375H8.75C7.58968 4.375 6.47688 4.83594 5.65641 5.65641C4.83594 6.47688 4.375 7.58968 4.375 8.75V61.25C4.375 62.4103 4.83594 63.5231 5.65641 64.3436C6.47688 65.1641 7.58968 65.625 8.75 65.625H61.25C62.4103 65.625 63.5231 65.1641 64.3436 64.3436C65.1641 63.5231 65.625 62.4103 65.625 61.25V8.75ZM0 8.75C0 6.42936 0.921872 4.20376 2.56282 2.56282C4.20376 0.921872 6.42936 0 8.75 0L61.25 0C63.5706 0 65.7962 0.921872 67.4372 2.56282C69.0781 4.20376 70 6.42936 70 8.75V61.25C70 63.5706 69.0781 65.7962 67.4372 67.4372C65.7962 69.0781 63.5706 70 61.25 70H8.75C6.42936 70 4.20376 69.0781 2.56282 67.4372C0.921872 65.7962 0 63.5706 0 61.25V8.75ZM37.1875 19.6875C37.1875 19.1073 36.957 18.5509 36.5468 18.1407C36.1366 17.7305 35.5802 17.5 35 17.5C34.4198 17.5 33.8634 17.7305 33.4532 18.1407C33.043 18.5509 32.8125 19.1073 32.8125 19.6875V45.0319L23.4237 35.6387C23.013 35.228 22.4559 34.9972 21.875 34.9972C21.2941 34.9972 20.737 35.228 20.3263 35.6387C19.9155 36.0495 19.6847 36.6066 19.6847 37.1875C19.6847 37.7684 19.9155 38.3255 20.3263 38.7363L33.4512 51.8613C33.6544 52.065 33.8958 52.2266 34.1616 52.3369C34.4274 52.4471 34.7123 52.5039 35 52.5039C35.2877 52.5039 35.5726 52.4471 35.8384 52.3369C36.1042 52.2266 36.3456 52.065 36.5488 51.8613L49.6738 38.7363C50.0845 38.3255 50.3153 37.7684 50.3153 37.1875C50.3153 36.6066 50.0845 36.0495 49.6738 35.6387C49.263 35.228 48.7059 34.9972 48.125 34.9972C47.5441 34.9972 46.987 35.228 46.5762 35.6387L37.1875 45.0319V19.6875Z" fill="black"/>
</svg>
