<svg width="70" height="70" viewBox="0 0 70 70" fill="none" xmlns="http://www.w3.org/2000/svg">
<rect x="70" width="70" height="70" rx="10" transform="rotate(90 70 0)" fill="
#4472c4"/>
<path fill-rule="evenodd" clip-rule="evenodd" d="M61.25 65.625C62.4103 65.625 63.5231 65.1641 64.3436 64.3436C65.1641 63.5231 65.625 62.4103 65.625 61.25L65.625 8.75C65.625 7.58968 65.1641 6.47688 64.3436 5.65641C63.5231 4.83594 62.4103 4.375 61.25 4.375L8.75 4.375C7.58968 4.375 6.47688 4.83594 5.65641 5.65641C4.83594 6.47688 4.375 7.58968 4.375 8.75L4.375 61.25C4.375 62.4103 4.83594 63.5231 5.65641 64.3436C6.47688 65.1641 7.58968 65.625 8.75 65.625L61.25 65.625ZM61.25 0C63.5706 0 65.7962 0.921872 67.4372 2.56282C69.0781 4.20376 70 6.42936 70 8.75L70 61.25C70 63.5706 69.0781 65.7962 67.4372 67.4372C65.7962 69.0781 63.5706 70 61.25 70L8.75 70C6.42936 70 4.20376 69.0781 2.56282 67.4372C0.921875 65.7962 0 63.5706 0 61.25L0 8.75C0 6.42936 0.921875 4.20376 2.56282 2.56282C4.20376 0.921872 6.42936 0 8.75 0L61.25 0ZM50.3125 37.1875C50.8927 37.1875 51.4491 36.957 51.8593 36.5468C52.2695 36.1366 52.5 35.5802 52.5 35C52.5 34.4198 52.2695 33.8634 51.8593 33.4532C51.4491 33.043 50.8927 32.8125 50.3125 32.8125H24.9681L34.3613 23.4237C34.772 23.013 35.0028 22.4559 35.0028 21.875C35.0028 21.2941 34.772 20.737 34.3613 20.3263C33.9505 19.9155 33.3934 19.6847 32.8125 19.6847C32.2316 19.6847 31.6745 19.9155 31.2637 20.3263L18.1387 33.4512C17.935 33.6544 17.7734 33.8958 17.6631 34.1616C17.5529 34.4274 17.4961 34.7123 17.4961 35C17.4961 35.2877 17.5529 35.5726 17.6631 35.8384C17.7734 36.1042 17.935 36.3456 18.1387 36.5488L31.2637 49.6738C31.6745 50.0845 32.2316 50.3153 32.8125 50.3153C33.3934 50.3153 33.9505 50.0845 34.3613 49.6738C34.772 49.263 35.0028 48.7059 35.0028 48.125C35.0028 47.5441 34.772 46.987 34.3613 46.5762L24.9681 37.1875H50.3125Z" fill="black"/>
</svg>
