<svg width="70" height="70" viewBox="0 0 70 70" fill="none" xmlns="http://www.w3.org/2000/svg">
<g clip-path="url(#clip0_2_214)">
<rect x="70" y="70" width="70" height="70" rx="10" transform="rotate(180 70 70)" fill="#4472c4"/>
<path fill-rule="evenodd" clip-rule="evenodd" d="M4.375 61.25C4.375 62.4103 4.83594 63.5231 5.65641 64.3436C6.47688 65.1641 7.58968 65.625 8.75 65.625L61.25 65.625C62.4103 65.625 63.5231 65.1641 64.3436 64.3436C65.1641 63.5231 65.625 62.4103 65.625 61.25L65.625 8.75C65.625 7.58968 65.1641 6.47688 64.3436 5.65641C63.5231 4.83594 62.4103 4.375 61.25 4.375L8.75 4.375C7.58968 4.375 6.47688 4.83594 5.65641 5.65641C4.83594 6.47688 4.375 7.58968 4.375 8.75L4.375 61.25ZM70 61.25C70 63.5706 69.0781 65.7962 67.4372 67.4372C65.7962 69.0781 63.5706 70 61.25 70L8.75 70C6.42936 70 4.20377 69.0781 2.56282 67.4372C0.921875 65.7962 0 63.5706 0 61.25L0 8.75C0 6.42936 0.921875 4.20377 2.56282 2.56282C4.20377 0.921875 6.42936 0 8.75 0L61.25 0C63.5706 0 65.7962 0.921875 67.4372 2.56282C69.0781 4.20377 70 6.42936 70 8.75L70 61.25Z" fill="black"/>
<path d="M29.4 35.35L24.85 30.8H28C28.35 22.946 31.346 16.8 35 16.8C37.8 16.8 40.278 20.496 41.37 25.83C46.704 26.922 50.4 29.4 50.4 32.2C50.4 34.762 47.362 37.002 42.84 38.22L43.246 35.378C45.92 34.608 47.6 33.474 47.6 32.2C47.6 30.716 45.29 29.4 41.818 28.7C41.93 29.806 42 30.982 42 32.2C42 40.712 38.864 47.6 35 47.6C32.438 47.6 30.198 44.562 28.98 40.04L31.822 40.446C32.592 43.12 33.726 44.8 35 44.8C37.324 44.8 39.2 39.158 39.2 32.2C39.2 30.8 39.13 29.47 38.99 28.21C37.73 28.07 36.4 28 35 28L32.396 28.084L32.802 25.27L35 25.2C36.218 25.2 37.394 25.27 38.5 25.382C37.8 21.91 36.484 19.6 35 19.6C32.844 19.6 31.052 24.5 30.8 30.8H33.95L29.4 35.35ZM38.15 37.8L33.6 42.35V39.2C25.746 38.85 19.6 35.854 19.6 32.2C19.6 29.638 22.638 27.398 27.16 26.18L26.754 29.022C24.08 29.792 22.4 30.926 22.4 32.2C22.4 34.356 27.3 36.148 33.6 36.4V33.25L38.15 37.8Z" fill="black"/>
</g>
<defs>
<clipPath id="clip0_2_214">
<rect x="70" y="70" width="70" height="70" rx="10" transform="rotate(180 70 70)" fill="white"/>
</clipPath>
</defs>
</svg>
